<?xml version="1.0" standalone="no"?><svg xmlns="http://www.w3.org/2000/svg" viewBox="0 0 1440 320"><path fill="#012623" fill-opacity="1" d="M0,224L24,234.7C48,245,96,267,144,240C192,213,240,139,288,122.7C336,107,384,149,432,170.7C480,192,528,192,576,181.3C624,171,672,149,720,128C768,107,816,85,864,106.7C912,128,960,192,1008,202.7C1056,213,1104,171,1152,160C1200,149,1248,171,1296,186.7C1344,203,1392,213,1416,218.7L1440,224L1440,320L1416,320C1392,320,1344,320,1296,320C1248,320,1200,320,1152,320C1104,320,1056,320,1008,320C960,320,912,320,864,320C816,320,768,320,720,320C672,320,624,320,576,320C528,320,480,320,432,320C384,320,336,320,288,320C240,320,192,320,144,320C96,320,48,320,24,320L0,320Z"></path></svg>